<?xml version="1.0" ?><!DOCTYPE svg  PUBLIC '-//W3C//DTD SVG 1.1//EN'  'http://www.w3.org/Graphics/SVG/1.1/DTD/svg11.dtd'><svg enable-background="new 0 0 512 512" height="512px" id="Layer_1" version="1.1" viewBox="0 0 512 512" width="512px" xml:space="preserve" xmlns="http://www.w3.org/2000/svg" xmlns:xlink="http://www.w3.org/1999/xlink"><path style="fill: white;" d="M133.961,485.372h63.25V260.729l-63.25,63.295V485.372z M46.998,410.995v74.377h63.26v-137.65l-43.685,43.696  L46.998,410.995z M220.912,485.331h63.258V311.686l-63.258-63.256V485.331L220.912,485.331z M307.875,319.067v166.305h63.255  V255.791l-49.589,49.625L307.875,319.067z M394.871,485.372h63.216V168.833l-63.216,63.259V485.372z M369.71,40.217l41.946,41.979  l0.244,0.246L299.744,194.638l-84.537-84.512L0,325.36l44.735,44.701L215.21,199.574l84.537,84.512l156.885-156.912l41.742,41.74  L512,26.627L369.71,40.217z"/></svg>
